<?xml version="1.0" encoding="UTF-8"?>
<svg version="1.1" xmlns="http://www.w3.org/2000/svg" width="2100" height="2100">
<path d="M0 0 C693 0 1386 0 2100 0 C2100 693 2100 1386 2100 2100 C1407 2100 714 2100 0 2100 C0 1407 0 714 0 0 Z " fill="#FEFEFE" transform="translate(0,0)"/>
<path d="M0 0 C346.95233645 0 346.95233645 0 375.47265625 4.015625 C376.16070343 4.11151917 376.84875061 4.20741333 377.55764771 4.30621338 C379.72728325 4.61215271 381.89494426 4.92968078 384.0625 5.25 C384.81536285 5.35948975 385.56822571 5.46897949 386.34390259 5.58178711 C405.24844599 8.34241104 423.92942833 11.66606977 442 18 C442.83740723 18.28746094 443.67481445 18.57492187 444.53759766 18.87109375 C468.74719896 27.21356226 490.94555429 37.86804918 511 54 C511.99773437 54.7940625 512.99546875 55.588125 514.0234375 56.40625 C527.71317632 67.52050144 540.35304425 80.09955572 550.77783203 94.33789062 C551.97461582 95.96547833 553.20384142 97.56905174 554.43359375 99.171875 C596.15382175 154.36721869 611.5119611 232.127821 602.40600586 299.96582031 C601.96348101 302.98194431 601.48756486 305.99084846 601 309 C600.83902832 310.04140137 600.67805664 311.08280273 600.51220703 312.15576172 C595.40365493 344.47066624 584.06652641 375.28323832 565 402 C564.58878906 402.58475098 564.17757812 403.16950195 563.75390625 403.77197266 C548.54356705 425.12354705 528.4436288 441.78968565 506 455 C505.40525879 455.35304199 504.81051758 455.70608398 504.19775391 456.06982422 C491.01696565 463.79343338 476.52292632 469.34678583 462 474 C462 474.33 462 474.66 462 475 C463.10472656 475.20753906 464.20945312 475.41507813 465.34765625 475.62890625 C495.32281156 481.47285154 525.69969355 491.5386304 550.09765625 510.41015625 C553.7580443 512.41524096 554.9951742 511.94857487 559 511 C561.27998683 510.16292816 563.53578047 509.25830516 565.76953125 508.3046875 C566.40336227 508.03642151 567.0371933 507.76815552 567.69023132 507.49176025 C569.7335871 506.62548093 571.77301735 505.7503537 573.8125 504.875 C575.22236867 504.27520247 576.63252632 503.67608377 578.04296875 503.07763672 C580.13196214 502.19119633 582.22076288 501.30433794 584.3085022 500.41494751 C589.35210804 498.26723229 594.41851673 496.18145408 599.5 494.125 C607.12393843 491.00641283 614.57782983 487.56618041 622 484 C622.96196289 483.53819336 623.92392578 483.07638672 624.91503906 482.60058594 C630.64275637 479.848848 636.3672014 477.09039969 642.08984375 474.328125 C647.30932442 471.81051865 652.53819538 469.31358668 657.77246094 466.8269043 C679.77993002 456.36045396 701.62554302 445.51315308 722.953125 433.71484375 C723.95891602 433.15998291 724.96470703 432.60512207 726.00097656 432.03344727 C727.96463049 430.94755496 729.92506141 429.85580889 731.88183594 428.75756836 C732.76645508 428.26780518 733.65107422 427.77804199 734.5625 427.2734375 C735.74005859 426.61480713 735.74005859 426.61480713 736.94140625 425.94287109 C739 425 739 425 742 425 C741.03320312 425.83402344 740.06640625 426.66804688 739.0703125 427.52734375 C730.3432693 435.06284395 730.3432693 435.06284395 721.75 442.75 C717.60685292 446.50472704 713.31955813 450.04316677 708.97265625 453.55859375 C705.66248321 456.27719841 702.42511457 459.07091855 699.1875 461.875 C693.44593085 466.83188018 687.5590928 471.56144468 681.5703125 476.21484375 C677.82702364 479.12410884 674.13202908 482.0917294 670.4375 485.0625 C664.334434 489.9574001 658.17173626 494.76839406 651.94970703 499.51123047 C649.68051371 501.24395535 647.4165806 502.98345983 645.15234375 504.72265625 C635.3577092 512.23223964 625.4860597 519.6052277 615.453125 526.79296875 C610.80726552 530.12564509 606.21707268 533.53131558 601.625 536.9375 C592.69074396 543.54820836 583.60853146 549.93195628 574.48095703 556.27197266 C572.07420569 557.94831452 569.67449987 559.63419127 567.27734375 561.32421875 C552.97581568 571.3996938 538.50321617 581.21821382 524 591 C522.88963379 591.74926758 522.88963379 591.74926758 521.75683594 592.51367188 C502.34339126 605.59198826 482.69964256 618.35788993 463 631 C461.80310547 631.76908691 461.80310547 631.76908691 460.58203125 632.55371094 C447.58433442 640.89602997 434.47955769 649.05297872 421.3125 657.125 C416.52488608 660.060091 411.74970207 663.01430874 406.98144531 665.98071289 C394.99695679 673.43248843 382.90973039 680.70737424 370.78820801 687.93371582 C368.92062101 689.04733261 367.05354668 690.16180553 365.18652344 691.27636719 C347.2109279 702.00414232 329.16732821 712.5992046 311 723 C309.17707465 724.04555778 307.35415768 725.09113017 305.53125 726.13671875 C276.53573367 742.75094778 247.37153306 759.05964418 218 775 C217.06687988 775.50708496 216.13375977 776.01416992 215.17236328 776.53662109 C192.65512275 788.77201663 170.10403296 800.93622156 147.33984375 812.70703125 C142.16898056 815.38385942 137.01734513 818.09615278 131.8671875 820.8125 C122.66901318 825.65999027 113.44093478 830.44641035 104.1875 835.1875 C103.35847168 835.61243744 102.52944336 836.03737488 101.67529297 836.47518921 C84.68679712 845.17489839 67.63067111 853.73943817 50.56201553 862.28046036 C48.52150891 863.30173478 46.48134583 864.32369263 44.44125366 865.34579468 C19.75411405 877.7109564 19.75411405 877.7109564 8.78125 882.91796875 C7.75940613 883.40611809 7.75940613 883.40611809 6.71691895 883.90412903 C2.24440217 886 2.24440217 886 0 886 C0 593.62 0 301.24 0 0 Z " fill="#21A9C8" transform="translate(696,545)"/>
<path d="M0 0 C3.10880954 2.91822908 4.83128118 6.20667737 6.6875 10 C7.03417725 10.70495605 7.38085449 11.40991211 7.73803711 12.13623047 C25.19113611 48.11331566 35.3715606 87.90267717 36 128 C36.02046387 129.20253418 36.04092773 130.40506836 36.06201172 131.64404297 C36.88338709 185.70269564 27.35482424 236.9030865 4 286 C3.62407715 286.79051758 3.2481543 287.58103516 2.86083984 288.39550781 C-8.1384284 311.11827595 -23.52604244 331.85735644 -41 350 C-41.63212402 350.65935547 -42.26424805 351.31871094 -42.91552734 351.99804688 C-92.72191434 403.67703153 -158.49249167 422.06113302 -228.34545898 427.82543945 C-231.0876753 428.05417341 -233.82783389 428.30077295 -236.56835938 428.54882812 C-281.34012326 432.41969683 -326.30996459 432.287859 -371.2076227 432.20707646 C-379.58027259 432.19242329 -387.95291607 432.18974479 -396.32557695 432.18748413 C-411.24440658 432.18315771 -426.16321374 432.16998968 -441.08203125 432.15087891 C-455.53352754 432.13238656 -469.98501763 432.1182964 -484.43652344 432.10986328 C-485.33442091 432.10933783 -486.23231839 432.10881239 -487.15742488 432.10827102 C-491.66403486 432.10566005 -496.17064487 432.10313285 -500.67725492 432.10064721 C-537.78485243 432.08007295 -574.89242443 432.04498992 -612 432 C-608.8598507 429.5850959 -605.76031606 427.76435124 -602.20361328 426.00415039 C-600.44865036 425.13162376 -600.44865036 425.13162376 -598.65823364 424.24147034 C-598.03424809 423.93359652 -597.41026253 423.62572269 -596.76736832 423.30851936 C-594.78476833 422.33011536 -592.80480229 421.3465527 -590.82540894 420.36167908 C-585.89255269 417.90855347 -580.95554456 415.46383113 -576.01831055 413.01953125 C-571.19991956 410.63370414 -566.38345038 408.24406509 -561.5703125 405.84765625 C-560.89718836 405.51254217 -560.22406422 405.17742809 -559.53054237 404.83215904 C-549.12701861 399.64425542 -538.86349886 394.24221287 -528.70239258 388.59130859 C-523.70674162 385.81585921 -518.64043385 383.18355936 -513.5625 380.5625 C-504.28154365 375.73658775 -495.17754879 370.63209886 -486.08984375 365.453125 C-480.71350542 362.39297751 -475.30485382 359.39420348 -469.88867188 356.40527344 C-457.73326923 349.6946932 -445.70344059 342.81187106 -433.79394531 335.67431641 C-430.86268656 333.91771272 -427.92758512 332.1676462 -424.9921875 330.41796875 C-414.05672684 323.88920713 -403.16421598 317.29188708 -392.3125 310.625 C-390.77384277 309.680802 -390.77384277 309.680802 -389.20410156 308.7175293 C-387.70508301 307.79387573 -387.70508301 307.79387573 -386.17578125 306.8515625 C-385.16298096 306.23917725 -384.15018066 305.62679199 -383.10668945 304.99584961 C-379.93014589 303.02019372 -379.93014589 303.02019372 -376.86791992 300.56860352 C-367.51120272 293.42798789 -359.22759862 292.72012418 -347.65737915 292.69616699 C-342.47538288 292.68104438 -337.29702758 292.51149757 -332.1171875 292.37109375 C-331.04332291 292.34608795 -329.96945831 292.32108215 -328.86305237 292.2953186 C-299.89016401 291.57973885 -269.9838681 290.00249962 -242 282 C-240.94651367 281.70077637 -239.89302734 281.40155273 -238.80761719 281.09326172 C-203.72527368 270.84717564 -174.04509678 250.24249191 -155.87304688 218.00048828 C-153.40203519 213.41611133 -151.15730241 208.73893373 -149 204 C-148.18208984 202.21529297 -148.18208984 202.21529297 -147.34765625 200.39453125 C-142.85951861 189.92221009 -140.26937313 179.13639117 -138 168 C-137.83870605 167.21109375 -137.67741211 166.4221875 -137.51123047 165.609375 C-135.99320802 157.90627081 -134.92407752 150.43913351 -134.984375 142.5703125 C-135.07941054 125.64164434 -135.07941054 125.64164434 -131.84765625 120.7265625 C-129.01883798 118.46509488 -126.16137968 116.75767828 -123 115 C-121.29351409 113.54546102 -119.62544953 112.04456842 -118 110.5 C-114.68933487 107.48038235 -111.31281747 104.60965178 -107.8125 101.8125 C-101.74392602 96.90764404 -96.11293336 91.57244999 -90.4375 86.22265625 C-87.35560525 83.3205387 -84.20620102 80.51396639 -81 77.75 C-76.80532044 74.07965539 -72.72729886 70.27765744 -68.62939453 66.5 C-66.96273741 64.96569653 -65.29222477 63.43567833 -63.62109375 61.90625 C-58.28307566 57.01191134 -53.0225487 52.08500334 -47.94787598 46.91529846 C-46.13563145 45.13336306 -44.27260107 43.47854014 -42.33789062 41.83178711 C-37.65301446 37.75777386 -33.28043166 33.40666877 -28.90625 29.00390625 C-28.07411987 28.17036118 -27.24198975 27.3368161 -26.38464355 26.47801208 C-23.75405065 23.84186738 -21.12697559 21.20224895 -18.5 18.5625 C-16.70596145 16.76344021 -14.91169285 14.9646098 -13.1171875 13.16601562 C-8.74212875 8.77999188 -4.36994488 4.39111858 0 0 Z " fill="#333333" transform="translate(1308,1124)"/>
<path d="M0 0 C130.9337461 0 130.9337461 0 166.5 7.375 C167.57677002 7.59704102 168.65354004 7.81908203 169.76293945 8.04785156 C172.84385178 8.68994889 175.92191657 9.34450659 179 10 C179.76876465 10.15694336 180.5375293 10.31388672 181.32958984 10.47558594 C204.9781671 15.33665119 227.00073577 25.80449607 244 43 C244.80050781 43.79019531 245.60101562 44.58039062 246.42578125 45.39453125 C261.70685461 61.30901698 269.49263322 82.77940186 274 104 C274.16516113 104.76151367 274.33032227 105.52302734 274.50048828 106.30761719 C281.48428619 140.46828327 280.3086153 183.32863043 265 215 C264.6812793 215.67192383 264.36255859 216.34384766 264.03417969 217.03613281 C251.0628917 243.97451057 228.07315544 261.80751429 200.29345703 271.89819336 C135.85814869 294.29653823 67.5606102 289 0 289 C0 193.63 0 98.26 0 0 Z " fill="#FEFEFE" transform="translate(857,682)"/>
<path d="M0 0 C31.48114784 -0.08060607 31.48114784 -0.08060607 44.90625 -0.09765625 C54.0927969 -0.10941872 63.27930594 -0.12313819 72.46582031 -0.15087891 C178.00331785 -0.46286113 178.00331785 -0.46286113 220.625 14.1875 C221.71965576 14.56237549 221.71965576 14.56237549 222.83642578 14.94482422 C227.87679654 16.75359308 227.87679654 16.75359308 229 19 C227.90945313 19.30292969 226.81890625 19.60585937 225.6953125 19.91796875 C224.97682129 20.1176123 224.25833008 20.31725586 223.51806641 20.52294922 C221.89287075 20.9742635 220.26754043 21.42509303 218.64208984 21.87548828 C214.68530928 22.97253014 210.73006377 24.07380683 206.78125 25.19921875 C182.74326107 32.02285079 158.39754405 37.63209458 134 43 C132.86191895 43.25104492 131.72383789 43.50208984 130.55126953 43.76074219 C99.47333931 50.58995437 68.25259646 56.69626913 36.93164062 62.29833984 C35.61687241 62.53384552 35.61687241 62.53384552 34.27554321 62.77410889 C32.56797327 63.0799045 30.86027351 63.38497621 29.1524353 63.68927002 C25.30506427 64.38024086 21.46761508 65.09691672 17.64111328 65.89599609 C16.96476334 66.03684128 16.28841339 66.17768646 15.59156799 66.32279968 C13.80830462 66.69919861 12.02720984 67.08583283 10.24633789 67.47338867 C7 68 7 68 0 68 C0 45.56 0 23.12 0 0 Z " fill="#FEFEFE" transform="translate(857,1096)"/>
<path d="M0 0 C0.66 0.33 1.32 0.66 2 1 C-1.96 4.465 -1.96 4.465 -6 8 C-6.33 6.68 -6.66 5.36 -7 4 C-1.7265625 0.77734375 -1.7265625 0.77734375 0 0 Z " fill="#64DAF6" transform="translate(1436,969)"/>
</svg>
